<mxfile host="app.diagrams.net" modified="2020-12-11T12:22:56.022Z" agent="5.0 (Windows NT 10.0; Win64; x64) AppleWebKit/537.36 (KHTML, like Gecko) Chrome/87.0.4280.88 Safari/537.36" etag="bTc-Q2LIhw68IhCSC3Qf" version="14.0.1" type="github">
  <diagram name="Page-1" id="e7e014a7-5840-1c2e-5031-d8a46d1fe8dd">
    <mxGraphModel dx="1038" dy="580" grid="1" gridSize="10" guides="1" tooltips="1" connect="1" arrows="1" fold="1" page="1" pageScale="1" pageWidth="1169" pageHeight="826" background="#ffffff" math="0" shadow="0">
      <root>
        <mxCell id="0" />
        <mxCell id="1" parent="0" />
        <object label="&lt;font style=&quot;vertical-align: inherit ; font-size: 21px&quot;&gt;&lt;font style=&quot;vertical-align: inherit ; font-size: 21px&quot;&gt;&lt;font style=&quot;vertical-align: inherit ; font-size: 21px&quot;&gt;&lt;font style=&quot;vertical-align: inherit ; font-size: 21px&quot;&gt;&lt;font style=&quot;vertical-align: inherit&quot;&gt;&lt;font style=&quot;vertical-align: inherit&quot;&gt;&lt;b&gt;Ввод х&lt;/b&gt;&lt;/font&gt;&lt;/font&gt;&lt;/font&gt;&lt;/font&gt;&lt;/font&gt;&lt;/font&gt;" id="KbWh7vNqVikbCkN3GT3C-41">
          <mxCell style="ellipse;whiteSpace=wrap;html=1;" vertex="1" parent="1">
            <mxGeometry x="420" y="180" width="180" height="80" as="geometry" />
          </mxCell>
        </object>
        <mxCell id="KbWh7vNqVikbCkN3GT3C-43" value="" style="endArrow=classic;html=1;" edge="1" parent="1">
          <mxGeometry width="50" height="50" relative="1" as="geometry">
            <mxPoint x="509.5" y="260" as="sourcePoint" />
            <mxPoint x="509.5" y="330" as="targetPoint" />
          </mxGeometry>
        </mxCell>
        <mxCell id="KbWh7vNqVikbCkN3GT3C-44" value="&lt;font style=&quot;vertical-align: inherit&quot;&gt;&lt;font style=&quot;vertical-align: inherit ; font-size: 14px&quot;&gt;&lt;b&gt;а:=0&lt;/b&gt;&lt;/font&gt;&lt;/font&gt;" style="rhombus;whiteSpace=wrap;html=1;" vertex="1" parent="1">
          <mxGeometry x="455" y="333" width="110" height="107" as="geometry" />
        </mxCell>
        <mxCell id="KbWh7vNqVikbCkN3GT3C-45" value="" style="endArrow=classic;html=1;entryX=0;entryY=0.5;entryDx=0;entryDy=0;" edge="1" parent="1" target="KbWh7vNqVikbCkN3GT3C-48">
          <mxGeometry width="50" height="50" relative="1" as="geometry">
            <mxPoint x="565" y="386" as="sourcePoint" />
            <mxPoint x="635" y="386" as="targetPoint" />
          </mxGeometry>
        </mxCell>
        <mxCell id="KbWh7vNqVikbCkN3GT3C-46" value="" style="endArrow=classic;html=1;" edge="1" parent="1">
          <mxGeometry width="50" height="50" relative="1" as="geometry">
            <mxPoint x="370" y="390" as="sourcePoint" />
            <mxPoint x="369.5" y="500" as="targetPoint" />
          </mxGeometry>
        </mxCell>
        <mxCell id="KbWh7vNqVikbCkN3GT3C-47" value="&lt;b&gt;&lt;font style=&quot;font-size: 14px&quot;&gt;fabs(x)&amp;lt;eps&lt;/font&gt;&lt;/b&gt;" style="rhombus;whiteSpace=wrap;html=1;" vertex="1" parent="1">
          <mxGeometry x="320" y="500" width="100" height="100" as="geometry" />
        </mxCell>
        <mxCell id="KbWh7vNqVikbCkN3GT3C-48" value="&lt;b&gt;&lt;font style=&quot;font-size: 14px&quot;&gt;Вывод &quot;lllegal value of a&quot;&lt;/font&gt;&lt;/b&gt;" style="rounded=1;whiteSpace=wrap;html=1;" vertex="1" parent="1">
          <mxGeometry x="670" y="356.5" width="120" height="60" as="geometry" />
        </mxCell>
        <mxCell id="KbWh7vNqVikbCkN3GT3C-49" value="&lt;b&gt;&lt;font style=&quot;font-size: 15px&quot;&gt;Вывод sqrt(a)&lt;/font&gt;&lt;/b&gt;" style="rounded=1;whiteSpace=wrap;html=1;" vertex="1" parent="1">
          <mxGeometry x="490" y="590" width="120" height="60" as="geometry" />
        </mxCell>
        <mxCell id="KbWh7vNqVikbCkN3GT3C-53" value="" style="endArrow=none;html=1;" edge="1" parent="1">
          <mxGeometry width="50" height="50" relative="1" as="geometry">
            <mxPoint x="420" y="549.5" as="sourcePoint" />
            <mxPoint x="550" y="550" as="targetPoint" />
          </mxGeometry>
        </mxCell>
        <mxCell id="KbWh7vNqVikbCkN3GT3C-56" value="" style="endArrow=classic;html=1;" edge="1" parent="1">
          <mxGeometry width="50" height="50" relative="1" as="geometry">
            <mxPoint x="550" y="550" as="sourcePoint" />
            <mxPoint x="550" y="590" as="targetPoint" />
          </mxGeometry>
        </mxCell>
        <mxCell id="KbWh7vNqVikbCkN3GT3C-57" value="&lt;font style=&quot;font-size: 24px&quot;&gt;&lt;b&gt;Конец&lt;/b&gt;&lt;/font&gt;" style="ellipse;whiteSpace=wrap;html=1;" vertex="1" parent="1">
          <mxGeometry x="640" y="575" width="170" height="90" as="geometry" />
        </mxCell>
        <mxCell id="KbWh7vNqVikbCkN3GT3C-58" value="" style="endArrow=classic;html=1;entryX=0;entryY=0.5;entryDx=0;entryDy=0;exitX=1;exitY=0.5;exitDx=0;exitDy=0;" edge="1" parent="1" source="KbWh7vNqVikbCkN3GT3C-49" target="KbWh7vNqVikbCkN3GT3C-57">
          <mxGeometry width="50" height="50" relative="1" as="geometry">
            <mxPoint x="750" y="625" as="sourcePoint" />
            <mxPoint x="810" y="600" as="targetPoint" />
          </mxGeometry>
        </mxCell>
        <mxCell id="KbWh7vNqVikbCkN3GT3C-61" value="" style="endArrow=classic;html=1;entryX=0.5;entryY=0;entryDx=0;entryDy=0;" edge="1" parent="1" target="KbWh7vNqVikbCkN3GT3C-57">
          <mxGeometry width="50" height="50" relative="1" as="geometry">
            <mxPoint x="724.5" y="416.5" as="sourcePoint" />
            <mxPoint x="725" y="570" as="targetPoint" />
            <Array as="points">
              <mxPoint x="724.5" y="486.5" />
            </Array>
          </mxGeometry>
        </mxCell>
        <mxCell id="KbWh7vNqVikbCkN3GT3C-62" value="&lt;font style=&quot;vertical-align: inherit&quot;&gt;&lt;font style=&quot;vertical-align: inherit&quot;&gt;&lt;font style=&quot;vertical-align: inherit&quot;&gt;&lt;font style=&quot;vertical-align: inherit&quot;&gt;&lt;font style=&quot;vertical-align: inherit&quot;&gt;&lt;font style=&quot;vertical-align: inherit&quot;&gt;Да&lt;/font&gt;&lt;/font&gt;&lt;/font&gt;&lt;/font&gt;&lt;/font&gt;&lt;/font&gt;" style="text;html=1;strokeColor=none;fillColor=none;align=center;verticalAlign=middle;whiteSpace=wrap;rounded=0;" vertex="1" parent="1">
          <mxGeometry x="580" y="360" width="40" height="20" as="geometry" />
        </mxCell>
        <mxCell id="KbWh7vNqVikbCkN3GT3C-63" value="&lt;font style=&quot;vertical-align: inherit&quot;&gt;&lt;font style=&quot;vertical-align: inherit&quot;&gt;Нет&lt;/font&gt;&lt;/font&gt;" style="text;html=1;strokeColor=none;fillColor=none;align=center;verticalAlign=middle;whiteSpace=wrap;rounded=0;" vertex="1" parent="1">
          <mxGeometry x="420" y="356.5" width="40" height="20" as="geometry" />
        </mxCell>
        <mxCell id="KbWh7vNqVikbCkN3GT3C-65" value="&lt;font style=&quot;vertical-align: inherit&quot;&gt;&lt;font style=&quot;vertical-align: inherit&quot;&gt;Нет&lt;/font&gt;&lt;/font&gt;" style="text;html=1;strokeColor=none;fillColor=none;align=center;verticalAlign=middle;whiteSpace=wrap;rounded=0;" vertex="1" parent="1">
          <mxGeometry x="315" y="610" width="40" height="20" as="geometry" />
        </mxCell>
        <mxCell id="KbWh7vNqVikbCkN3GT3C-66" value="" style="endArrow=classic;html=1;exitX=0.5;exitY=1;exitDx=0;exitDy=0;" edge="1" parent="1" source="KbWh7vNqVikbCkN3GT3C-47">
          <mxGeometry width="50" height="50" relative="1" as="geometry">
            <mxPoint x="350" y="640" as="sourcePoint" />
            <mxPoint x="370" y="690" as="targetPoint" />
          </mxGeometry>
        </mxCell>
        <mxCell id="KbWh7vNqVikbCkN3GT3C-67" value="&lt;b style=&quot;font-size: 16px&quot;&gt;xp=x&lt;br&gt;x=(x+a/x)/2&lt;/b&gt;" style="rounded=0;whiteSpace=wrap;html=1;" vertex="1" parent="1">
          <mxGeometry x="310" y="690" width="120" height="60" as="geometry" />
        </mxCell>
        <mxCell id="KbWh7vNqVikbCkN3GT3C-68" value="" style="endArrow=none;html=1;" edge="1" parent="1">
          <mxGeometry width="50" height="50" relative="1" as="geometry">
            <mxPoint x="370" y="386" as="sourcePoint" />
            <mxPoint x="455" y="386" as="targetPoint" />
          </mxGeometry>
        </mxCell>
        <mxCell id="KbWh7vNqVikbCkN3GT3C-70" value="Да" style="text;html=1;strokeColor=none;fillColor=none;align=center;verticalAlign=middle;whiteSpace=wrap;rounded=0;" vertex="1" parent="1">
          <mxGeometry x="455" y="520" width="40" height="20" as="geometry" />
        </mxCell>
      </root>
    </mxGraphModel>
  </diagram>
</mxfile>
